<?xml version="1.0" encoding="utf-8"?>
<!-- Generator: Adobe Illustrator 25.3.1, SVG Export Plug-In . SVG Version: 6.00 Build 0)  -->
<svg version="1.1" id="Calque_2_1_" xmlns="http://www.w3.org/2000/svg" xmlns:xlink="http://www.w3.org/1999/xlink" x="0px"
	 y="0px" viewBox="0 0 269.6 164.7" style="enable-background:new 0 0 269.6 164.7;" xml:space="preserve">
<style type="text/css">
	.st0{fill:#2A2E46;}
	.st1{fill:#E84E0F;}
</style>
<g>
	<path class="st0" d="M2.1,38.7h11V106h-11V38.7z"/>
	<path class="st0" d="M26.7,80.8V38.7h11.1v41.4c0,9.9,6.6,16.5,15.9,16.5s15.9-6.5,15.9-16.5V38.7h11.1v42.1
		c0,15.5-11.5,26.4-27,26.4C38.2,107.3,26.7,96.4,26.7,80.8z"/>
	<path class="st0" d="M138.2,49h-19.7v57h-11V49H87.7V38.7h50.5V49z"/>
	<path class="st1" d="M164.7,39.1V106H154V48.9h-11.8v-9.8C142.2,39.1,164.7,39.1,164.7,39.1z"/>
</g>
<g>
	<path class="st0" d="M1.3,125.8v-9h3.1v8.8c0,1.8,1.2,2.9,2.8,2.9c1.7,0,2.8-1.1,2.8-2.9v-8.8h3.1v9c0,3.4-2.5,5.7-6,5.7
		C3.9,131.5,1.3,129.2,1.3,125.8z"/>
	<path class="st0" d="M25.6,124.5v6.7h-3V125c0-1.7-0.6-2.5-1.9-2.5c-1.6,0-2.5,1.1-2.5,2.9v5.8h-3v-11.1h2.1l0.6,1.4
		c0.8-1,2.2-1.6,3.7-1.6C24,119.8,25.6,121.7,25.6,124.5z"/>
	<path class="st0" d="M27.5,120.1h3v11.1h-3V120.1z M27.5,115.8h3v2.8h-3V115.8z"/>
	<path class="st0" d="M43,120.1l-4.4,11.1h-2.8l-4.5-11.1h3.2l2.7,7.5l2.7-7.5H43z"/>
	<path class="st0" d="M54.1,125.6c0,0.3,0,0.6-0.1,0.9h-8.4c0.3,1.5,1.3,2.4,2.7,2.4c1,0,1.9-0.5,2.4-1.3h3.2c-0.8,2.4-2.9,4-5.5,4
		c-3.3,0-5.8-2.5-5.8-5.9s2.5-5.9,5.8-5.9C51.8,119.8,54.1,122.4,54.1,125.6L54.1,125.6z M45.7,124.5h5.4c-0.4-1.4-1.4-2.1-2.8-2.1
		C47,122.4,46.1,123.1,45.7,124.5z"/>
	<path class="st0" d="M62.1,120v2.8h-1.3c-1.7,0-2.4,0.8-2.4,2.6v5.8h-3v-11.1h1.9l0.5,1.4c0.8-1,1.8-1.4,3.2-1.4L62.1,120L62.1,120
		z"/>
	<path class="st0" d="M66.9,131.5c-2.8,0-4.7-1.6-4.7-4h2.9c0,1,0.8,1.5,1.9,1.5c0.8,0,1.6-0.4,1.6-1.1c0-0.8-1-1-2.1-1.2
		c-1.8-0.3-4-0.8-4-3.4c0-2.1,1.8-3.6,4.5-3.6s4.4,1.5,4.5,3.7h-2.9c0-0.9-0.6-1.3-1.7-1.3c-0.9,0-1.5,0.4-1.5,1.1s0.9,0.9,2.1,1.1
		c1.8,0.3,4.1,0.7,4.1,3.4C71.5,130.1,69.7,131.5,66.9,131.5L66.9,131.5z"/>
	<path class="st0" d="M72.9,120.1h3v11.1h-3V120.1z M72.9,115.8h3v2.8h-3V115.8z"/>
	<path class="st0" d="M84.8,128.6v2.7h-2.1c-2.4,0-4-1.5-4-4v-4.7h-2V122l4.4-4.7h0.6v2.9h3.1v2.4h-3v4.3c0,1.1,0.6,1.7,1.7,1.7
		L84.8,128.6L84.8,128.6z"/>
	<path class="st0" d="M96.7,125.6c0,0.3,0,0.6-0.1,0.9h-8.4c0.3,1.5,1.3,2.4,2.7,2.4c1,0,1.9-0.5,2.4-1.3h3.2c-0.8,2.4-2.9,4-5.5,4
		c-3.3,0-5.8-2.5-5.8-5.9s2.5-5.9,5.8-5.9C94.4,119.8,96.7,122.4,96.7,125.6L96.7,125.6z M88.3,124.5h5.4c-0.4-1.4-1.4-2.1-2.8-2.1
		C89.6,122.4,88.7,123.1,88.3,124.5z M91.9,118.9h-2.3l1.1-3.1h3.2L91.9,118.9z"/>
	<path class="st0" d="M116.3,123.7c0,4.5-3,7.8-7.4,7.8c-4.2,0-7.5-3.2-7.5-7.5s3.1-7.5,7.4-7.5c3.6,0,6.6,2.3,7.2,5.5h-3.2
		c-0.6-1.5-2.1-2.5-4-2.5c-2.6,0-4.3,1.9-4.3,4.6s1.7,4.5,4.3,4.5c1.9,0,3.5-1,4-2.5h-4.3v-2.4C108.5,123.7,116.3,123.7,116.3,123.7
		z"/>
	<path class="st0" d="M124.3,120v2.8H123c-1.7,0-2.4,0.8-2.4,2.6v5.8h-3v-11.1h1.9l0.5,1.4c0.8-1,1.8-1.4,3.2-1.4L124.3,120
		L124.3,120z"/>
	<path class="st0" d="M135.7,126.5h-8.4c0.3,1.5,1.3,2.4,2.7,2.4c1,0,1.9-0.5,2.4-1.3h3.2c-0.8,2.4-2.9,4-5.5,4
		c-3.3,0-5.8-2.5-5.8-5.9s2.5-5.9,5.8-5.9c3.4,0,5.8,2.6,5.8,5.8C135.7,125.9,135.7,126.2,135.7,126.5z M127.3,124.5h5.4
		c-0.4-1.4-1.4-2.1-2.8-2.1C128.6,122.4,127.7,123.1,127.3,124.5z"/>
	<path class="st0" d="M147.5,124.5v6.7h-3V125c0-1.7-0.6-2.5-1.9-2.5c-1.5,0-2.5,1.1-2.5,2.9v5.8h-3v-11.1h2.1l0.6,1.4
		c0.8-1,2.2-1.6,3.7-1.6C145.9,119.8,147.5,121.7,147.5,124.5z"/>
	<path class="st0" d="M148.7,125.7c0-3.4,2.6-5.9,6-5.9s6,2.5,6,5.9c0,3.4-2.6,5.9-6,5.9C151.3,131.5,148.7,129,148.7,125.7z
		 M157.7,125.7c0-1.8-1.2-3-3-3c-1.7,0-3,1.2-3,3s1.2,3,3,3C156.4,128.7,157.7,127.5,157.7,125.7z"/>
	<path class="st0" d="M174,125.7c0,3.4-2.5,5.9-5.8,5.9c-1.4,0-2.6-0.5-3.5-1.2l-0.4,0.9H162v-15.1h3v4.6c0.9-0.6,1.9-0.9,3.1-0.9
		C171.5,119.8,174,122.3,174,125.7z M170.9,125.7c0-1.7-1.3-3-3-3s-3,1.3-3,3s1.3,3,3,3C169.6,128.7,170.9,127.4,170.9,125.7z"/>
	<path class="st0" d="M175.3,116.1h3v15.1h-3V116.1z"/>
	<path class="st0" d="M191.1,126.5h-8.4c0.3,1.5,1.3,2.4,2.7,2.4c1,0,1.9-0.5,2.4-1.3h3.2c-0.8,2.4-2.9,4-5.5,4
		c-3.3,0-5.8-2.5-5.8-5.9s2.5-5.9,5.8-5.9c3.4,0,5.8,2.6,5.8,5.8C191.2,125.9,191.1,126.2,191.1,126.5z M182.8,124.5h5.4
		c-0.4-1.4-1.4-2.1-2.8-2.1C184.1,122.4,183.1,123.1,182.8,124.5z"/>
	<path class="st0" d="M204.8,128.5h-5.7l-1,2.7h-3.3l5.7-14.4h2.9l5.8,14.4h-3.4L204.8,128.5z M200,125.8h3.8l-1.9-5.2L200,125.8z"
		/>
	<path class="st0" d="M210,116.1h3v15.1h-3V116.1z"/>
	<path class="st0" d="M221.1,119.8c3.4,0,5.8,2.5,5.8,5.9s-2.5,5.9-5.8,5.9c-1.2,0-2.2-0.3-3.1-0.9v4.6h-3v-15.1h2l0.5,1
		C218.5,120.3,219.7,119.8,221.1,119.8L221.1,119.8z M223.9,125.7c0-1.7-1.3-3-3-3s-3,1.3-3,3s1.3,3,3,3S223.9,127.4,223.9,125.7z"
		/>
	<path class="st0" d="M239,126.5h-8.4c0.3,1.5,1.3,2.4,2.7,2.4c1,0,1.9-0.5,2.4-1.3h3.2c-0.8,2.4-2.9,4-5.5,4
		c-3.3,0-5.8-2.5-5.8-5.9s2.5-5.9,5.8-5.9c3.4,0,5.8,2.6,5.8,5.8C239.1,125.9,239.1,126.2,239,126.5z M230.7,124.5h5.4
		c-0.4-1.4-1.4-2.1-2.8-2.1C232,122.4,231,123.1,230.7,124.5z"/>
	<path class="st0" d="M244.3,131.5c-2.8,0-4.7-1.6-4.7-4h2.9c0,1,0.8,1.5,1.9,1.5c0.8,0,1.6-0.4,1.6-1.1c0-0.8-1-1-2.1-1.2
		c-1.8-0.3-4-0.8-4-3.4c0-2.1,1.8-3.6,4.5-3.6c2.7,0,4.4,1.5,4.5,3.7H246c0-0.9-0.6-1.3-1.7-1.3c-0.9,0-1.5,0.4-1.5,1.1
		s0.9,0.9,2.1,1.1c1.8,0.3,4.1,0.7,4.1,3.4C249,130.1,247.1,131.5,244.3,131.5L244.3,131.5z"/>
</g>
<g>
	<path class="st1" d="M213.8,84.1c4.2,7.3,8.4,14.5,12.6,21.8c-8.4,0-16.7,0-25.2,0C205.4,98.6,209.6,91.4,213.8,84.1z"/>
	<path class="st0" d="M213.8,39c11.1,19.2,22.1,38.3,33.2,57.5c-0.6,0-13.7,0-13.7,0c-6-10.4-12.7-22-18.7-32.4
		c-0.2-0.4-0.5-0.8-0.7-1.2c-0.3,0.5-0.5,0.9-0.7,1.2c-6,10.4-12.7,22-18.7,32.4c0,0-13.2,0-13.7,0C191.7,77.2,202.7,58.2,213.8,39z
		"/>
</g>
</svg>
