<svg xmlns="http://www.w3.org/2000/svg" viewBox="0 0 1200 630" fill="none">
  <!-- Background gradient -->
  <defs>
    <linearGradient id="bg-grad" x1="0%" y1="0%" x2="100%" y2="100%">
      <stop offset="0%" style="stop-color:#0a0a0a"/>
      <stop offset="100%" style="stop-color:#1a1020"/>
    </linearGradient>
    <linearGradient id="accent-grad" x1="0%" y1="0%" x2="100%" y2="0%">
      <stop offset="0%" style="stop-color:#a855f7"/>
      <stop offset="100%" style="stop-color:#facc15"/>
    </linearGradient>
    <linearGradient id="app-grad" x1="0%" y1="0%" x2="0%" y2="100%">
      <stop offset="0%" style="stop-color:#374151"/>
      <stop offset="100%" style="stop-color:#1f2937"/>
    </linearGradient>
  </defs>

  <!-- Background -->
  <rect width="1200" height="630" fill="url(#bg-grad)"/>

  <!-- Decorative elements -->
  <g opacity="0.05">
    <circle cx="120" cy="80" r="70" stroke="#a855f7" stroke-width="1" fill="none"/>
    <circle cx="1080" cy="550" r="50" stroke="#facc15" stroke-width="1" fill="none"/>
    <rect x="1050" y="60" width="40" height="40" stroke="#a855f7" stroke-width="1" fill="none" transform="rotate(15 1070 80)"/>
  </g>

  <!-- Desktop app mockup -->
  <g transform="translate(600, 220)">
    <g transform="translate(-280, -130)">
      <!-- App window frame -->
      <rect x="0" y="0" width="560" height="300" rx="8" fill="url(#app-grad)" stroke="#4b5563" stroke-width="1"/>

      <!-- Title bar -->
      <rect x="0" y="0" width="560" height="32" rx="8" fill="#1f2937"/>
      <rect x="0" y="24" width="560" height="8" fill="#1f2937"/>

      <!-- Traffic lights -->
      <circle cx="18" cy="16" r="5" fill="#ef4444"/>
      <circle cx="36" cy="16" r="5" fill="#facc15"/>
      <circle cx="54" cy="16" r="5" fill="#22c55e"/>

      <!-- App title in title bar -->
      <text x="280" y="20" font-family="system-ui, sans-serif" font-size="11" fill="#9ca3af" text-anchor="middle" font-weight="500">Cahnon — Mon Roman</text>

      <!-- Sidebar - Outline panel -->
      <rect x="0" y="32" width="140" height="268" fill="#111827"/>
      <rect x="140" y="32" width="1" height="268" fill="#374151"/>

      <!-- Sidebar header -->
      <rect x="10" y="42" width="80" height="10" rx="2" fill="#a855f7" opacity="0.6"/>
      <text x="14" y="50" font-family="system-ui, sans-serif" font-size="8" fill="#a855f7" font-weight="600">MANUSCRIT</text>

      <!-- Chapter items -->
      <rect x="10" y="62" width="120" height="18" rx="2" fill="#1f2937"/>
      <text x="24" y="74" font-family="system-ui, sans-serif" font-size="8" fill="#d1d5db">Ch. 1 — L'éveil</text>

      <rect x="20" y="84" width="110" height="14" rx="1" fill="transparent"/>
      <text x="24" y="94" font-family="system-ui, sans-serif" font-size="7" fill="#6b7280">Scène 1.1</text>

      <rect x="20" y="100" width="110" height="14" rx="1" fill="#a855f7" opacity="0.15"/>
      <text x="24" y="110" font-family="system-ui, sans-serif" font-size="7" fill="#a855f7">Scène 1.2</text>

      <rect x="20" y="116" width="110" height="14" rx="1" fill="transparent"/>
      <text x="24" y="126" font-family="system-ui, sans-serif" font-size="7" fill="#6b7280">Scène 1.3</text>

      <rect x="10" y="138" width="120" height="18" rx="2" fill="#1f2937"/>
      <text x="24" y="150" font-family="system-ui, sans-serif" font-size="8" fill="#d1d5db">Ch. 2 — La quête</text>

      <rect x="20" y="160" width="110" height="14" rx="1" fill="transparent"/>
      <text x="24" y="170" font-family="system-ui, sans-serif" font-size="7" fill="#6b7280">Scène 2.1</text>

      <!-- Sidebar bottom icons -->
      <g transform="translate(10, 265)">
        <rect x="0" y="0" width="24" height="24" rx="4" fill="#1f2937"/>
        <text x="12" y="16" font-family="system-ui, sans-serif" font-size="10" fill="#6b7280" text-anchor="middle">📖</text>
        <rect x="30" y="0" width="24" height="24" rx="4" fill="#1f2937"/>
        <text x="42" y="16" font-family="system-ui, sans-serif" font-size="10" fill="#6b7280" text-anchor="middle">👤</text>
        <rect x="60" y="0" width="24" height="24" rx="4" fill="#1f2937"/>
        <text x="72" y="16" font-family="system-ui, sans-serif" font-size="10" fill="#6b7280" text-anchor="middle">🗺️</text>
        <rect x="90" y="0" width="24" height="24" rx="4" fill="#1f2937"/>
        <text x="102" y="16" font-family="system-ui, sans-serif" font-size="10" fill="#6b7280" text-anchor="middle">📊</text>
      </g>

      <!-- Main editor area -->
      <rect x="150" y="42" width="400" height="248" fill="#0d1117"/>

      <!-- Editor toolbar -->
      <rect x="150" y="42" width="400" height="28" fill="#161b22"/>
      <rect x="160" y="50" width="14" height="12" rx="2" fill="#374151"/>
      <text x="164" y="59" font-family="system-ui, sans-serif" font-size="8" fill="#9ca3af" font-weight="700">B</text>
      <rect x="178" y="50" width="14" height="12" rx="2" fill="#374151"/>
      <text x="181" y="59" font-family="system-ui, sans-serif" font-size="8" fill="#9ca3af" font-style="italic">I</text>
      <rect x="196" y="50" width="14" height="12" rx="2" fill="#374151"/>
      <text x="199" y="59" font-family="system-ui, sans-serif" font-size="8" fill="#9ca3af" text-decoration="underline">U</text>

      <!-- Word count -->
      <text x="530" y="60" font-family="system-ui, sans-serif" font-size="8" fill="#6b7280" text-anchor="end">2 847 mots</text>

      <!-- Text content lines -->
      <g transform="translate(170, 82)">
        <rect x="0" y="0" width="280" height="7" rx="1" fill="#d1d5db" opacity="0.6"/>
        <rect x="0" y="14" width="340" height="7" rx="1" fill="#d1d5db" opacity="0.5"/>
        <rect x="0" y="28" width="200" height="7" rx="1" fill="#d1d5db" opacity="0.5"/>
        <rect x="0" y="42" width="320" height="7" rx="1" fill="#d1d5db" opacity="0.5"/>
        <rect x="0" y="56" width="260" height="7" rx="1" fill="#d1d5db" opacity="0.6"/>
        <rect x="0" y="70" width="300" height="7" rx="1" fill="#d1d5db" opacity="0.5"/>

        <!-- Highlighted bible entry -->
        <rect x="80" y="84" width="60" height="9" rx="2" fill="#a855f7" opacity="0.2"/>
        <rect x="0" y="84" width="350" height="7" rx="1" fill="#d1d5db" opacity="0.5"/>

        <rect x="0" y="98" width="240" height="7" rx="1" fill="#d1d5db" opacity="0.5"/>
        <rect x="0" y="112" width="310" height="7" rx="1" fill="#d1d5db" opacity="0.5"/>
        <rect x="0" y="126" width="180" height="7" rx="1" fill="#d1d5db" opacity="0.5"/>

        <!-- Cursor blinking line -->
        <rect x="180" y="126" width="1.5" height="10" fill="#a855f7"/>

        <rect x="0" y="148" width="290" height="7" rx="1" fill="#d1d5db" opacity="0.4"/>
        <rect x="0" y="162" width="330" height="7" rx="1" fill="#d1d5db" opacity="0.4"/>
      </g>
    </g>

    <!-- Bible entry popup -->
    <g transform="translate(100, -40)">
      <rect x="0" y="0" width="120" height="65" rx="6" fill="#1f2937" stroke="#a855f7" stroke-width="1" opacity="0.95"/>
      <text x="10" y="16" font-family="system-ui, sans-serif" font-size="8" fill="#a855f7" font-weight="600">👤 Personnage</text>
      <text x="10" y="30" font-family="system-ui, sans-serif" font-size="9" fill="#fff" font-weight="500">Elena Vasquez</text>
      <rect x="10" y="38" width="100" height="4" rx="1" fill="#374151"/>
      <rect x="10" y="38" width="70" height="4" rx="1" fill="#a855f7" opacity="0.6"/>
      <text x="10" y="55" font-family="system-ui, sans-serif" font-size="7" fill="#6b7280">Arc: La rédemption</text>
    </g>

    <!-- Timeline indicator -->
    <g transform="translate(-310, 50)">
      <rect x="0" y="0" width="75" height="50" rx="6" fill="#facc15" opacity="0.15" stroke="#facc15" stroke-width="1"/>
      <text x="38" y="18" font-family="system-ui, sans-serif" font-size="9" fill="#facc15" text-anchor="middle" font-weight="600">Timeline</text>
      <rect x="10" y="26" width="55" height="3" rx="1" fill="#374151"/>
      <circle cx="15" cy="27" r="4" fill="#facc15"/>
      <circle cx="35" cy="27" r="4" fill="#a855f7"/>
      <circle cx="55" cy="27" r="4" fill="#374151" stroke="#6b7280" stroke-width="1"/>
      <text x="38" y="42" font-family="system-ui, sans-serif" font-size="7" fill="#6b7280" text-anchor="middle">3 événements</text>
    </g>
  </g>

  <!-- Title -->
  <text x="600" y="440" font-family="system-ui, -apple-system, sans-serif" font-size="42" font-weight="700" fill="#fff" text-anchor="middle">Cahnon</text>

  <!-- Subtitle -->
  <text x="600" y="478" font-family="system-ui, -apple-system, sans-serif" font-size="19" fill="#9ca3af" text-anchor="middle">Application desktop pour auteurs de fiction</text>

  <!-- Tech badges -->
  <g transform="translate(600, 530)">
    <rect x="-230" y="0" width="80" height="24" rx="4" fill="#a855f7" opacity="0.2"/>
    <text x="-190" y="16" font-family="system-ui, sans-serif" font-size="11" fill="#a855f7" text-anchor="middle">Svelte 5</text>

    <rect x="-140" y="0" width="80" height="24" rx="4" fill="#facc15" opacity="0.2"/>
    <text x="-100" y="16" font-family="system-ui, sans-serif" font-size="11" fill="#facc15" text-anchor="middle">Tauri v2</text>

    <rect x="-50" y="0" width="60" height="24" rx="4" fill="#ef4444" opacity="0.2"/>
    <text x="-20" y="16" font-family="system-ui, sans-serif" font-size="11" fill="#ef4444" text-anchor="middle">Rust</text>

    <rect x="20" y="0" width="70" height="24" rx="4" fill="#22d3ee" opacity="0.2"/>
    <text x="55" y="16" font-family="system-ui, sans-serif" font-size="11" fill="#22d3ee" text-anchor="middle">SQLite</text>

    <rect x="100" y="0" width="90" height="24" rx="4" fill="#10b981" opacity="0.2"/>
    <text x="145" y="16" font-family="system-ui, sans-serif" font-size="11" fill="#10b981" text-anchor="middle">TypeScript</text>
  </g>

  <!-- Border accent -->
  <rect x="0" y="0" width="1200" height="4" fill="url(#accent-grad)"/>
</svg>
